{"glyphs":{"0":{"ha":833,"x_min":43,"x_max":790,"o":"m 417 -12 q 139 117 235 -12 q 43 490 43 246 q 139 863 43 733 q 417 992 235 992 q 694 863 597 992 q 790 490 790 733 q 694 117 790 246 q 417 -12 599 -12 m 417 181 q 513 253 483 181 q 542 490 542 325 q 513 726 542 654 q 417 799 483 799 q 321 727 350 799 q 292 490 292 656 q 321 253 292 325 q 417 181 350 181 z "},"1":{"ha":833,"x_min":88,"x_max":832,"o":"m 711 203 q 803 178 774 203 q 832 103 832 153 q 711 0 832 0 l 229 0 q 108 103 108 0 q 138 178 108 153 q 229 203 167 203 l 342 203 l 342 704 l 231 639 q 182 625 207 625 q 115 659 143 625 q 88 735 88 693 q 136 821 88 792 l 358 950 q 474 985 419 985 q 563 951 529 985 q 597 861 597 918 l 597 203 l 711 203 z "},"2":{"ha":835,"x_min":50,"x_max":796,"o":"m 675 203 q 766 178 736 203 q 796 103 796 154 q 766 25 796 50 q 675 0 736 0 l 168 0 q 89 30 118 0 q 60 106 60 60 q 107 214 60 165 l 401 521 q 493 697 493 617 q 466 769 493 744 q 389 794 439 794 q 315 783 349 794 q 236 749 281 771 l 208 735 q 187 723 203 732 q 158 710 171 714 q 132 706 146 706 q 74 737 97 706 q 50 811 50 768 q 59 861 50 842 q 93 897 68 881 q 240 967 158 942 q 400 992 321 992 q 581 958 503 992 q 701 860 658 924 q 743 715 743 797 q 709 560 743 631 q 593 404 675 490 l 396 203 l 675 203 z "},"3":{"ha":833,"x_min":35,"x_max":768,"o":"m 593 504 q 722 418 675 481 q 768 267 768 356 q 722 119 768 182 q 592 23 676 57 q 396 -11 508 -11 q 222 13 306 -11 q 78 83 139 38 q 44 122 54 101 q 35 169 35 142 q 58 242 35 213 q 117 272 82 272 q 151 266 136 272 q 193 246 167 260 q 206 240 199 243 q 224 232 214 236 q 303 198 268 210 q 383 186 339 186 q 495 211 461 186 q 529 294 529 236 q 494 372 529 349 q 381 396 460 396 l 294 396 q 229 425 253 396 q 206 494 206 454 q 229 564 206 535 q 294 593 253 593 l 356 593 q 467 615 432 593 q 501 686 501 638 q 471 766 501 738 q 386 794 440 794 q 313 782 347 794 q 238 749 279 769 l 208 735 q 167 715 182 721 q 132 708 151 708 q 74 738 97 708 q 50 811 50 768 q 60 860 50 840 q 93 897 69 879 q 234 967 153 942 q 399 992 315 992 q 580 958 501 992 q 701 864 658 925 q 743 722 743 803 q 703 588 743 646 q 593 504 664 531 z "},"4":{"ha":833,"x_min":18,"x_max":836,"o":"m 715 360 q 836 264 836 360 q 715 165 836 165 l 685 165 l 685 118 q 650 24 685 56 q 560 -8 615 -8 q 470 24 504 -8 q 436 118 436 56 l 436 165 l 126 165 q 47 196 76 165 q 18 272 18 226 q 49 364 18 321 l 446 931 q 495 973 465 958 q 557 988 525 988 q 647 954 610 988 q 685 861 685 921 l 685 360 l 715 360 m 269 360 l 436 360 l 436 600 l 269 360 z "},"5":{"ha":833,"x_min":61,"x_max":794,"o":"m 485 640 q 645 601 575 640 q 755 490 715 561 q 794 325 794 418 q 747 149 794 225 q 614 31 700 72 q 415 -11 528 -11 q 247 14 329 -11 q 104 83 164 39 q 72 122 82 101 q 61 169 61 142 q 85 242 61 213 q 143 272 108 272 q 178 267 164 272 q 219 246 192 261 l 247 232 q 326 199 290 211 q 403 186 361 186 q 518 217 481 186 q 556 315 556 249 q 517 413 556 378 q 408 447 478 447 q 333 440 367 447 q 253 415 299 433 q 190 400 224 400 q 125 423 151 400 q 99 483 99 446 l 99 860 q 129 949 99 918 q 217 979 160 979 l 647 979 q 768 883 768 979 q 647 786 768 786 l 347 786 l 347 615 q 485 640 406 640 z "},"6":{"ha":833,"x_min":42,"x_max":794,"o":"m 500 644 q 650 603 583 644 q 755 490 717 563 q 793 325 793 417 q 749 151 793 228 q 628 31 706 74 q 451 -12 550 -12 q 149 115 256 -12 q 42 479 42 243 q 92 751 42 635 q 235 929 143 867 q 451 992 328 992 q 610 967 529 992 q 750 897 692 942 q 784 860 774 879 q 794 811 794 840 q 770 738 794 768 q 711 708 746 708 q 676 715 692 708 q 635 735 661 721 l 604 750 q 528 783 558 772 q 464 794 497 794 q 349 730 393 794 q 297 549 306 665 q 383 619 329 593 q 500 644 436 644 m 436 183 q 522 219 490 183 q 554 315 554 256 q 523 412 554 376 q 436 447 492 447 q 349 411 382 447 q 317 315 317 375 q 350 220 317 257 q 436 183 383 183 z "},"7":{"ha":833,"x_min":32,"x_max":801,"o":"m 697 979 q 774 949 747 979 q 801 874 801 919 q 775 782 801 826 l 354 53 q 306 3 335 19 q 247 -12 278 -12 q 161 20 199 -12 q 124 100 124 53 q 143 167 124 133 l 500 776 l 153 776 q 60 801 89 776 q 32 876 32 826 q 61 953 32 928 q 153 979 90 979 l 697 979 z "},"8":{"ha":833,"x_min":31,"x_max":803,"o":"m 628 504 q 758 419 713 479 q 803 269 803 358 q 699 63 803 138 q 417 -11 596 -11 q 134 63 238 -11 q 31 269 31 138 q 76 422 31 361 q 207 504 122 482 q 96 590 135 532 q 57 725 57 647 q 154 920 57 849 q 417 992 251 992 q 680 920 583 992 q 776 725 776 849 q 737 586 776 644 q 628 504 697 528 m 417 799 q 324 774 354 799 q 293 696 293 750 q 324 617 293 642 q 417 592 354 592 q 510 617 479 592 q 540 696 540 642 q 510 774 540 750 q 417 799 479 799 m 417 182 q 568 290 568 182 q 417 399 568 399 q 265 290 265 399 q 417 182 265 182 z "},"9":{"ha":833,"x_min":39,"x_max":792,"o":"m 382 992 q 685 864 578 992 q 792 500 792 736 q 741 228 792 344 q 598 50 690 113 q 382 -12 506 -12 q 223 13 304 -12 q 83 82 142 38 q 49 119 60 100 q 39 168 39 139 q 63 241 39 211 q 122 271 88 271 q 157 265 142 271 q 199 244 172 258 l 229 229 q 306 196 275 207 q 369 185 336 185 q 484 249 440 185 q 536 431 528 314 q 451 360 504 386 q 333 335 397 335 q 183 376 250 335 q 78 490 117 417 q 40 654 40 563 q 84 828 40 751 q 206 949 128 906 q 382 992 283 992 m 397 532 q 484 568 451 532 q 517 664 517 604 q 483 759 517 722 q 397 796 450 796 q 311 760 343 796 q 279 664 279 724 q 310 567 279 603 q 397 532 342 532 z "}," ":{"ha":397,"x_min":0,"x_max":0,"o":""},"А":{"ha":1057,"x_min":17,"x_max":1039,"o":"m 1026 157 q 1039 106 1039 131 q 1002 28 1039 60 q 918 -4 965 -4 q 860 13 886 -4 q 818 63 833 29 l 756 203 l 306 203 l 242 63 q 199 13 226 29 q 140 -4 172 -4 q 55 28 93 -4 q 17 106 17 60 q 29 157 17 131 l 396 910 q 449 967 414 947 q 528 988 485 988 q 606 967 569 988 q 660 910 642 947 l 1026 157 m 392 394 l 669 394 l 531 704 l 392 394 z "},"Б":{"ha":911,"x_min":89,"x_max":876,"o":"m 214 0 q 124 35 158 0 q 89 125 89 69 l 89 854 q 124 944 89 910 q 214 979 158 979 l 708 979 q 800 952 765 979 q 835 881 835 925 q 800 807 835 835 q 708 779 765 779 l 339 779 l 339 625 l 536 625 q 788 544 699 625 q 876 318 876 464 q 781 85 876 171 q 525 0 686 0 l 214 0 m 490 193 q 599 226 560 193 q 638 318 638 258 q 604 406 638 379 q 499 433 571 433 l 339 433 l 339 193 l 490 193 z "},"В":{"ha":965,"x_min":89,"x_max":924,"o":"m 746 508 q 878 420 832 482 q 924 268 924 358 q 881 127 924 188 q 760 33 839 67 q 576 0 682 0 l 207 0 q 119 31 150 0 q 89 118 89 61 l 89 861 q 119 949 89 918 q 207 979 150 979 l 563 979 q 808 910 717 979 q 899 725 899 842 q 858 592 899 650 q 746 508 818 535 m 338 594 l 519 594 q 625 617 592 594 q 658 688 658 639 q 625 763 658 739 q 519 786 592 786 l 338 786 l 338 594 m 544 193 q 653 217 621 193 q 686 297 686 242 q 653 377 686 353 q 544 401 621 401 l 338 401 l 338 193 l 544 193 z "},"Г":{"ha":817,"x_min":89,"x_max":797,"o":"m 214 -8 q 123 26 157 -8 q 89 118 89 60 l 89 861 q 122 947 89 914 q 207 979 154 979 l 688 979 q 770 953 743 979 q 797 881 797 926 q 770 806 797 833 q 688 779 743 779 l 339 779 l 339 118 q 305 26 339 61 q 214 -8 271 -8 z "},"Д":{"ha":1154,"x_min":26,"x_max":1121,"o":"m 143 -250 q 58 -216 90 -250 q 26 -124 26 -182 l 26 82 q 57 169 26 139 q 144 200 88 200 l 178 200 q 239 464 224 324 q 254 776 254 604 l 254 861 q 285 949 254 918 q 372 979 315 979 l 864 979 q 951 949 921 979 q 982 861 982 918 l 982 200 l 1003 200 q 1090 169 1060 200 q 1121 82 1121 139 l 1121 -124 q 1089 -215 1121 -181 q 1004 -250 1057 -250 q 919 -216 951 -250 q 888 -124 888 -182 l 888 0 l 260 0 l 260 -124 q 228 -215 260 -181 q 143 -250 196 -250 m 732 782 l 475 782 l 475 785 q 455 460 475 597 q 388 199 435 322 l 732 199 l 732 782 z "},"Е":{"ha":829,"x_min":89,"x_max":808,"o":"m 207 0 q 119 31 150 0 q 89 118 89 61 l 89 861 q 119 949 89 918 q 207 979 150 979 l 688 979 q 778 954 747 979 q 808 882 808 929 q 688 782 808 782 l 338 782 l 338 596 l 660 596 q 781 497 781 596 q 750 425 781 450 q 660 400 719 400 l 338 400 l 338 197 l 688 197 q 808 97 808 197 q 778 25 808 50 q 688 0 747 0 l 207 0 z "},"Ё":{"ha":829,"x_min":89,"x_max":808,"o":"m 207 0 q 119 31 150 0 q 89 118 89 61 l 89 861 q 119 949 89 918 q 207 979 150 979 l 688 979 q 778 954 747 979 q 808 882 808 929 q 688 782 808 782 l 338 782 l 338 596 l 660 596 q 781 497 781 596 q 750 425 781 450 q 660 400 719 400 l 338 400 l 338 197 l 688 197 q 808 97 808 197 q 778 25 808 50 q 688 0 747 0 l 207 0 m 317 1061 q 232 1092 264 1061 q 200 1174 200 1122 q 232 1253 200 1224 q 317 1283 264 1283 q 402 1253 369 1283 q 435 1174 435 1224 q 402 1092 435 1122 q 317 1061 369 1061 m 592 1061 q 507 1092 539 1061 q 475 1174 475 1122 q 507 1253 475 1224 q 592 1283 539 1283 q 676 1253 643 1283 q 708 1174 708 1224 q 676 1092 708 1122 q 592 1061 644 1061 z "},"Ж":{"ha":1519,"x_min":79,"x_max":1442,"o":"m 761 -8 q 670 26 704 -8 q 636 118 636 60 l 636 403 l 589 403 q 484 378 519 403 q 422 294 449 353 l 314 58 q 272 9 299 25 q 213 -7 244 -7 q 120 28 161 -7 q 79 113 79 63 q 90 161 79 139 l 172 332 q 231 440 207 406 q 280 494 254 475 q 360 539 306 513 l 174 810 q 153 874 153 838 q 191 953 153 919 q 276 988 229 988 q 369 935 335 988 l 588 592 l 636 592 l 636 861 q 670 953 636 918 q 761 988 704 988 q 852 953 818 988 q 886 861 886 919 l 886 592 l 935 592 l 1153 933 q 1196 975 1171 961 q 1249 989 1221 989 q 1332 956 1296 989 q 1368 875 1368 922 q 1347 811 1368 842 l 1163 539 q 1237 494 1213 514 q 1282 444 1261 475 q 1350 332 1303 414 l 1429 163 q 1442 113 1442 138 q 1400 27 1442 63 q 1307 -8 1358 -8 q 1249 8 1275 -8 q 1207 57 1224 24 l 1099 294 q 1038 377 1074 351 q 933 403 1003 403 l 886 403 l 886 118 q 852 26 886 61 q 761 -8 818 -8 z "},"З":{"ha":881,"x_min":31,"x_max":839,"o":"m 415 -12 q 103 54 232 -12 q 49 103 67 75 q 31 161 31 132 q 56 227 31 200 q 122 254 82 254 q 186 236 151 254 q 290 199 244 208 q 381 190 335 190 q 526 216 472 190 q 579 293 579 242 q 549 376 579 350 q 436 401 519 401 l 346 401 q 259 431 290 401 q 228 499 228 460 q 259 566 228 538 q 346 594 290 594 l 408 594 q 526 617 493 594 q 560 692 560 640 q 520 765 560 742 q 413 789 481 789 q 328 781 363 789 q 251 760 294 774 q 215 747 247 758 q 156 735 186 735 q 87 762 114 735 q 60 825 60 789 q 78 883 60 856 q 135 931 97 911 q 458 992 264 992 q 724 919 628 992 q 821 724 821 847 q 780 590 821 646 q 664 508 739 533 q 795 427 751 482 q 839 286 839 372 q 786 131 839 199 q 638 26 733 64 q 415 -12 542 -12 z "},"И":{"ha":1072,"x_min":89,"x_max":983,"o":"m 701 907 q 766 970 733 953 q 865 988 799 988 q 953 958 922 988 q 983 871 983 928 l 983 118 q 949 26 983 61 q 858 -8 915 -8 q 767 26 801 -8 q 733 118 733 60 l 733 615 l 393 103 q 333 31 360 56 q 277 -1 306 7 q 207 -8 249 -8 q 119 22 150 -8 q 89 108 89 51 l 89 861 q 123 953 89 918 q 214 988 157 988 q 305 953 271 988 q 339 861 339 919 l 339 365 l 701 907 z "},"Й":{"ha":1072,"x_min":89,"x_max":983,"o":"m 701 907 q 766 970 733 953 q 865 988 799 988 q 953 958 922 988 q 983 871 983 928 l 983 118 q 949 26 983 61 q 858 -8 915 -8 q 767 26 801 -8 q 733 118 733 60 l 733 615 l 393 103 q 333 31 360 56 q 277 -1 306 7 q 207 -8 249 -8 q 119 22 150 -8 q 89 108 89 51 l 89 861 q 123 953 89 918 q 214 988 157 988 q 305 953 271 988 q 339 861 339 919 l 339 365 l 701 907 m 536 1076 q 348 1123 428 1076 q 240 1243 268 1169 q 233 1281 233 1261 q 256 1337 233 1315 q 310 1358 279 1358 q 351 1346 332 1358 q 382 1310 371 1333 q 447 1234 407 1258 q 536 1210 488 1210 q 626 1235 586 1210 q 692 1310 667 1260 q 723 1346 704 1333 q 764 1358 742 1358 q 817 1337 794 1358 q 840 1282 840 1315 l 840 1275 q 833 1244 840 1263 q 727 1124 808 1171 q 536 1076 646 1076 z "},"К":{"ha":1022,"x_min":89,"x_max":944,"o":"m 214 -8 q 123 26 157 -8 q 89 118 89 60 l 89 861 q 123 953 89 918 q 214 988 157 988 q 305 953 271 988 q 339 861 339 919 l 339 599 l 413 599 l 693 939 q 785 986 732 986 q 860 955 828 986 q 893 882 893 924 q 863 806 893 840 l 643 547 q 722 501 694 524 q 772 447 750 479 q 839 336 794 414 l 925 182 q 944 113 944 149 q 908 28 944 63 q 825 -7 872 -7 q 719 61 758 -7 l 592 294 q 528 374 561 351 q 425 396 494 396 l 339 396 l 339 118 q 305 26 339 61 q 214 -8 271 -8 z "},"Л":{"ha":1049,"x_min":25,"x_max":961,"o":"m 469 649 q 404 240 469 383 q 214 26 339 97 q 129 0 169 0 q 54 30 83 0 q 25 103 25 60 q 46 170 25 138 q 108 228 67 203 q 224 604 224 306 l 224 861 q 254 949 224 918 q 342 979 285 979 l 842 979 q 930 949 899 979 q 961 861 961 918 l 961 118 q 926 26 961 61 q 835 -8 892 -8 q 744 26 778 -8 q 710 118 710 60 l 710 779 l 469 779 l 469 649 z "},"М":{"ha":1169,"x_min":92,"x_max":1078,"o":"m 958 986 q 1044 951 1011 986 q 1078 861 1078 917 l 1078 106 q 1047 22 1078 53 q 967 -8 1017 -8 q 887 22 918 -8 q 856 106 856 53 l 856 514 l 697 222 q 647 159 674 178 q 585 140 621 140 q 522 159 549 140 q 472 222 496 178 l 315 506 l 315 106 q 284 23 315 54 q 203 -8 253 -8 q 123 22 154 -8 q 92 106 92 53 l 92 861 q 126 951 92 917 q 213 986 160 986 q 281 965 250 986 q 332 903 311 943 l 588 422 l 842 903 q 958 986 885 986 z "},"Н":{"ha":1078,"x_min":89,"x_max":989,"o":"m 864 986 q 955 952 921 986 q 989 861 989 918 l 989 118 q 955 26 989 61 q 864 -8 921 -8 q 773 26 807 -8 q 739 118 739 60 l 739 396 l 339 396 l 339 118 q 305 26 339 61 q 214 -8 271 -8 q 123 26 157 -8 q 89 118 89 60 l 89 861 q 123 952 89 918 q 214 986 157 986 q 305 952 271 986 q 339 861 339 918 l 339 599 l 739 599 l 739 861 q 773 952 739 918 q 864 986 807 986 z "},"О":{"ha":1106,"x_min":64,"x_max":1043,"o":"m 554 -12 q 294 49 404 -12 q 124 224 183 111 q 64 490 64 338 q 124 756 64 643 q 294 931 183 869 q 554 992 404 992 q 815 931 704 992 q 984 756 925 869 q 1043 490 1043 643 q 983 224 1043 338 q 813 49 924 111 q 554 -12 703 -12 m 554 183 q 728 262 665 183 q 790 490 790 340 q 727 718 790 640 q 554 796 664 796 q 381 719 443 796 q 318 490 318 642 q 381 261 318 339 q 554 183 443 183 z "},"П":{"ha":1054,"x_min":89,"x_max":965,"o":"m 214 -8 q 123 26 157 -8 q 89 118 89 60 l 89 854 q 124 944 89 910 q 214 979 158 979 l 840 979 q 931 944 896 979 q 965 854 965 910 l 965 118 q 931 26 965 61 q 840 -8 897 -8 q 749 26 783 -8 q 715 118 715 60 l 715 779 l 339 779 l 339 118 q 305 26 339 61 q 214 -8 271 -8 z "},"Р":{"ha":940,"x_min":89,"x_max":906,"o":"m 215 -8 q 123 26 157 -8 q 89 118 89 60 l 89 861 q 119 949 89 918 q 207 979 150 979 l 563 979 q 815 897 725 979 q 906 667 906 814 q 815 438 906 521 q 563 354 724 354 l 344 354 l 344 118 q 310 26 344 60 q 215 -8 275 -8 m 528 546 q 633 575 599 546 q 667 665 667 604 q 528 786 667 786 l 344 786 l 344 546 l 528 546 z "},"С":{"ha":942,"x_min":64,"x_max":907,"o":"m 553 -12 q 295 49 406 -12 q 124 224 185 110 q 64 490 64 338 q 124 756 64 642 q 295 931 185 869 q 553 992 406 992 q 863 899 729 992 q 897 863 886 882 q 907 813 907 843 q 883 740 907 769 q 824 710 858 710 q 786 716 803 710 q 747 736 769 722 q 656 778 699 765 q 567 790 613 790 q 383 716 443 790 q 322 490 322 642 q 383 263 322 338 q 567 189 443 189 q 647 202 608 189 q 747 243 686 215 q 790 264 776 258 q 824 269 804 269 q 883 240 858 269 q 907 167 907 210 q 897 117 907 138 q 863 81 886 97 q 553 -12 729 -12 z "},"Т":{"ha":878,"x_min":-7,"x_max":885,"o":"m 439 -7 q 345 27 381 -7 q 310 118 310 61 l 310 772 l 114 772 q 23 798 53 772 q -7 876 -7 824 q 23 954 -7 929 q 114 979 53 979 l 764 979 q 855 954 825 979 q 885 876 885 929 q 855 798 885 824 q 764 772 825 772 l 568 772 l 568 118 q 533 27 568 61 q 439 -7 497 -7 z "},"У":{"ha":975,"x_min":56,"x_max":919,"o":"m 694 918 q 740 970 713 953 q 800 988 768 988 q 883 955 847 988 q 919 874 919 922 q 904 813 919 842 l 528 64 q 482 10 510 28 q 422 -8 454 -8 q 338 26 375 -8 q 301 110 301 61 q 315 165 301 138 l 382 297 l 76 807 q 56 876 56 839 q 90 956 56 924 q 169 989 125 989 q 224 974 199 989 q 269 926 250 958 l 501 535 l 694 918 z "},"Ф":{"ha":1257,"x_min":57,"x_max":1201,"o":"m 629 -28 q 538 7 572 -28 q 503 100 503 42 l 503 107 l 489 107 q 267 151 364 107 q 113 284 169 196 q 57 499 57 372 q 175 790 57 690 q 489 889 293 889 l 503 889 l 503 882 q 538 974 503 939 q 629 1010 572 1010 q 720 975 686 1010 q 754 882 754 940 l 754 889 l 768 889 q 1083 790 964 889 q 1201 499 1201 690 q 1145 284 1201 372 q 991 151 1089 196 q 768 107 893 107 l 754 107 l 754 100 q 720 8 754 43 q 629 -28 686 -28 m 506 706 l 494 706 q 365 660 419 706 q 310 499 310 614 q 367 338 310 385 q 494 290 425 290 l 506 290 l 506 706 m 764 290 q 891 338 833 290 q 949 499 949 386 q 893 659 949 613 q 764 706 838 706 l 753 706 l 753 290 l 764 290 z "},"Х":{"ha":953,"x_min":32,"x_max":921,"o":"m 890 185 q 921 108 921 150 q 884 26 921 61 q 801 -10 847 -10 q 717 32 753 -10 l 478 318 l 235 32 q 151 -10 199 -10 q 69 26 106 -10 q 32 110 32 63 q 61 185 32 150 l 328 493 l 68 794 q 38 869 38 831 q 74 952 38 917 q 158 988 111 988 q 243 946 207 988 l 478 668 l 711 946 q 793 988 744 988 q 877 952 840 988 q 914 869 914 917 q 885 794 914 829 l 625 493 l 890 185 z "},"Ч":{"ha":954,"x_min":75,"x_max":865,"o":"m 75 861 q 109 953 75 918 q 200 988 143 988 q 291 953 257 988 q 325 861 325 919 l 325 686 q 366 563 325 603 q 507 522 407 522 q 614 535 578 522 l 614 861 q 649 953 614 918 q 740 988 683 988 q 831 953 797 988 q 865 861 865 919 l 865 118 q 831 26 865 61 q 740 -8 797 -8 q 649 26 683 -8 q 614 118 614 60 l 614 343 q 540 331 593 336 q 449 325 486 325 q 175 400 275 325 q 75 638 75 475 l 75 861 z "},"Ц":{"ha":1106,"x_min":89,"x_max":1072,"o":"m 954 -250 q 869 -216 901 -250 q 838 -124 838 -182 l 838 0 l 207 0 q 119 31 150 0 q 89 118 89 61 l 89 861 q 123 953 89 918 q 214 988 157 988 q 305 953 271 988 q 339 861 339 919 l 339 200 l 682 200 l 682 861 q 716 953 682 918 q 807 988 750 988 q 898 953 864 988 q 932 861 932 919 l 932 200 l 953 200 q 1041 169 1010 200 q 1072 82 1072 139 l 1072 -124 q 1040 -215 1072 -181 q 954 -250 1008 -250 z "},"Ш":{"ha":1428,"x_min":89,"x_max":1339,"o":"m 207 0 q 119 31 150 0 q 89 118 89 61 l 89 861 q 123 953 89 918 q 214 988 157 988 q 305 953 271 988 q 339 861 339 919 l 339 200 l 589 200 l 589 861 q 623 953 589 918 q 714 988 657 988 q 805 953 771 988 q 839 861 839 919 l 839 200 l 1088 200 l 1088 861 q 1122 953 1088 918 q 1214 988 1157 988 q 1305 953 1271 988 q 1339 861 1339 919 l 1339 118 q 1308 31 1339 61 q 1221 0 1278 0 l 207 0 z "},"Щ":{"ha":1511,"x_min":89,"x_max":1478,"o":"m 1361 -250 q 1276 -216 1308 -250 q 1244 -124 1244 -182 l 1244 0 l 207 0 q 119 31 150 0 q 89 118 89 61 l 89 861 q 123 953 89 918 q 214 988 157 988 q 305 953 271 988 q 339 861 339 919 l 339 200 l 589 200 l 589 861 q 623 953 589 918 q 714 988 657 988 q 805 953 771 988 q 839 861 839 919 l 839 200 l 1088 200 l 1088 861 q 1122 953 1088 918 q 1214 988 1157 988 q 1305 953 1271 988 q 1339 861 1339 919 l 1339 200 l 1360 200 q 1447 169 1417 200 q 1478 82 1478 139 l 1478 -124 q 1446 -215 1478 -181 q 1361 -250 1414 -250 z "},"Ь":{"ha":924,"x_min":89,"x_max":890,"o":"m 207 0 q 119 31 150 0 q 89 118 89 61 l 89 861 q 123 953 89 918 q 214 988 157 988 q 305 953 271 988 q 339 861 339 919 l 339 618 l 550 618 q 802 540 714 618 q 890 318 890 463 q 789 81 890 163 q 519 0 688 0 l 207 0 m 513 193 q 617 223 582 193 q 651 310 651 253 q 617 399 651 372 q 513 426 583 426 l 339 426 l 339 193 l 513 193 z "},"Ъ":{"ha":1082,"x_min":-7,"x_max":1047,"o":"m 388 0 q 300 31 331 0 q 269 118 269 61 l 269 779 l 113 779 q 26 807 58 779 q -7 881 -7 835 q 26 952 -7 925 q 113 979 58 979 l 401 979 q 489 949 458 979 q 519 861 519 918 l 519 618 l 708 618 q 959 540 871 618 q 1047 318 1047 463 q 947 81 1047 163 q 678 0 846 0 l 388 0 m 671 193 q 774 223 739 193 q 810 307 810 253 q 776 399 810 371 q 671 426 742 426 l 519 426 l 519 193 l 671 193 z "},"Ы":{"ha":1286,"x_min":89,"x_max":1197,"o":"m 207 0 q 119 31 150 0 q 89 118 89 61 l 89 861 q 123 953 89 918 q 214 988 157 988 q 305 953 271 988 q 339 861 339 919 l 339 618 l 499 618 q 749 540 661 618 q 838 318 838 463 q 737 81 838 163 q 468 0 636 0 l 207 0 m 1072 -8 q 981 26 1015 -8 q 947 118 947 60 l 947 861 q 981 953 947 918 q 1072 988 1015 988 q 1163 953 1129 988 q 1197 861 1197 919 l 1197 118 q 1163 26 1197 61 q 1072 -8 1129 -8 m 476 193 q 581 225 546 193 q 617 315 617 257 q 583 415 617 385 q 476 444 549 444 l 331 444 l 331 193 l 476 193 z "},"Э":{"ha":913,"x_min":35,"x_max":850,"o":"m 349 -12 q 217 1 282 -12 q 100 39 151 15 q 51 81 67 56 q 35 136 35 107 q 63 204 35 175 q 132 233 90 233 q 182 222 158 233 q 269 196 235 201 q 344 190 304 190 q 585 401 550 190 l 303 401 q 226 428 256 401 q 197 499 197 456 q 226 568 197 542 q 303 594 256 594 l 582 594 q 347 789 538 789 q 281 783 314 789 q 197 763 247 778 q 153 754 172 754 q 85 783 111 754 q 60 850 60 811 q 76 908 60 881 q 128 953 93 935 q 361 992 222 992 q 623 928 513 992 q 792 751 733 865 q 850 486 850 636 q 789 224 850 338 q 615 49 728 111 q 349 -12 501 -12 z "},"Ю":{"ha":1494,"x_min":89,"x_max":1431,"o":"m 953 -12 q 629 97 753 -12 q 482 396 506 206 l 339 396 l 339 118 q 305 26 339 61 q 214 -8 271 -8 q 123 26 157 -8 q 89 118 89 60 l 89 861 q 123 953 89 918 q 214 988 157 988 q 305 953 271 988 q 339 861 339 919 l 339 599 l 483 599 q 635 888 513 783 q 953 992 757 992 q 1209 931 1101 992 q 1374 756 1317 869 q 1431 490 1431 643 q 1374 224 1431 338 q 1209 49 1317 110 q 953 -12 1101 -12 m 953 183 q 1120 261 1063 183 q 1178 490 1178 339 q 1119 719 1178 642 q 953 796 1061 796 q 785 719 843 796 q 728 490 728 643 q 785 260 728 338 q 953 183 843 183 z "},"Я":{"ha":983,"x_min":83,"x_max":894,"o":"m 768 -8 q 677 26 711 -8 q 643 118 643 60 l 643 354 l 569 354 q 432 268 482 354 l 310 54 q 208 -8 275 -8 q 122 25 160 -8 q 83 106 83 58 q 101 165 83 135 l 167 275 q 245 363 200 329 q 336 408 290 396 q 210 463 264 422 q 130 560 157 504 q 103 675 103 617 q 198 900 103 821 q 471 979 293 979 l 776 979 q 864 949 833 979 q 894 861 894 918 l 894 118 q 860 26 894 61 q 768 -8 825 -8 m 647 786 l 508 786 q 384 752 426 786 q 342 658 342 718 q 378 572 342 599 q 500 546 415 546 l 647 546 l 647 786 z "},",":{"ha":378,"x_min":54,"x_max":322,"o":"m 185 261 q 284 217 246 261 q 322 90 322 172 q 207 -190 322 -71 q 158 -211 186 -211 q 110 -192 131 -211 q 89 -150 89 -174 q 107 -110 89 -128 q 174 1 156 -58 q 88 40 121 6 q 54 126 54 74 q 92 222 54 183 q 185 261 129 261 z "},"!":{"ha":378,"x_min":40,"x_max":338,"o":"m 189 324 q 140 343 160 324 q 114 399 119 363 l 42 831 q 40 853 40 839 q 83 951 40 915 q 189 986 125 986 q 296 950 254 986 q 338 851 338 914 q 336 829 338 838 l 263 399 q 238 343 258 363 q 189 324 218 324 m 189 -8 q 92 31 131 -8 q 54 126 54 69 q 92 222 54 183 q 189 261 131 261 q 284 222 246 261 q 322 126 322 183 q 284 31 322 69 q 189 -8 246 -8 z "},".":{"ha":378,"x_min":54,"x_max":322,"o":"m 189 -8 q 92 31 131 -8 q 54 126 54 69 q 92 222 54 183 q 189 261 131 261 q 284 222 246 261 q 322 126 322 183 q 284 31 322 69 q 189 -8 246 -8 z "},"-":{"ha":619,"x_min":64,"x_max":556,"o":"m 179 276 q 64 374 64 276 q 179 469 64 469 l 440 469 q 527 444 499 469 q 556 374 556 419 q 527 302 556 328 q 440 276 499 276 l 179 276 z "}}}
